<?xml version="1.0" encoding="utf-8"?>
<!-- Generator: Adobe Illustrator 18.1.1, SVG Export Plug-In . SVG Version: 6.00 Build 0)  -->
<svg version="1.1" id="Layer_1" xmlns="http://www.w3.org/2000/svg" xmlns:xlink="http://www.w3.org/1999/xlink" x="0px" y="0px"
	 viewBox="246.8 1.4 706.4 387.4" enable-background="new 246.8 1.4 706.4 387.4" xml:space="preserve">
<polygon fill="#FFFDFD" stroke="#00597F" stroke-width="10" stroke-miterlimit="10" points="600,156 513.6,305.9 340.7,305.9 
	254.2,156 340.7,6.4 513.6,6.4 "/>
<polygon fill="#DAD9D9" stroke="#00597F" stroke-width="10" stroke-miterlimit="10" points="686.2,6.4 643.2,81.3 600,156 
	513.6,6.4 "/>
<polygon fill="none" stroke="#00597F" stroke-width="5" stroke-miterlimit="10" points="686.4,6.4 643.2,81.3 686.2,6.4 "/>
<polygon fill="#DAD9D9" stroke="#00597F" stroke-width="10" stroke-miterlimit="10" points="686.2,305.9 513.6,305.9 600,156 
	633.5,214.3 643.2,230.9 "/>
<polygon fill="none" stroke="#000000" stroke-miterlimit="10" points="686.4,305.9 686.2,305.9 643.2,230.9 "/>
<polygon fill="#FFFDFD" stroke="#00597F" stroke-width="10" stroke-miterlimit="10" points="945.5,156 859.1,305.9 686.4,305.9 
	643.2,230.9 633.5,214.3 600,156 643.2,81.3 686.4,6.4 859.1,6.4 "/>
<polygon fill="none" stroke="#00597F" stroke-width="5" stroke-miterlimit="10" points="686.4,6.4 643.2,81.3 686.2,6.4 "/>
<rect x="323.3" y="65.5" fill="none" width="202.6" height="196.7"/>
<g enable-background="new    ">
	<path fill="#6699CC" d="M427.5,62.3c43,0,64.7,23.3,64.7,23.3l-9.5,13c0,0-21-19.9-54.7-19.9c-42.2,0-72.4,32.7-72.4,75.2
		c0,43,30.2,78,72.9,78c36.3,0,58.3-24,58.3-24l10.2,12.5c0,0-24.6,27.9-68.8,27.9c-53.2,0-91-41.7-91-94.1
		C337.2,102,376.1,62.3,427.5,62.3z"/>
</g>
<rect x="693.6" y="69.1" fill="none" width="163.4" height="213.6"/>
<g enable-background="new    ">
	<path fill="#6699CC" d="M696.7,69h18.9l49.9,136.6c3.3,9.2,6.9,23.3,6.9,23.3h0.5c0,0,3.6-14.1,6.9-23.3L829.7,69h18.9l-66.8,179.8
		h-18.4L696.7,69z"/>
</g>
<rect x="246.8" y="320.5" fill="none" width="706.4" height="68.3"/>
<g enable-background="new    ">
	<path fill="#6699CC" d="M286.5,319.4c14.6,0,22,7.9,22,7.9l-3.2,4.4c0,0-7.1-6.8-18.6-6.8c-14.3,0-24.6,11.1-24.6,25.6
		c0,14.6,10.3,26.5,24.8,26.5c12.3,0,19.8-8.2,19.8-8.2l3.5,4.3c0,0-8.3,9.5-23.4,9.5c-18.1,0-31-14.2-31-32
		C255.8,332.9,269,319.4,286.5,319.4z"/>
</g>
<g enable-background="new    ">
	<path d="M344.8,354.6h2.4v-1.1c0-8.4-4.6-11.3-10.9-11.3c-7.2,0-12.3,4.2-12.3,4.2l-2.8-4.5c0,0,5.7-5,15.6-5
		c10.5,0,16.3,5.8,16.3,16.8v28h-5.7v-4.8c0-2.2,0.2-3.7,0.2-3.7h-0.2c0,0-3.7,9.5-14.6,9.5c-7.3,0-14.9-4.3-14.9-13
		C318,354.9,337.2,354.6,344.8,354.6z M333.8,377.6c8.3,0,13.4-8.7,13.4-16.3v-1.9h-2.5c-6.9,0-20.6,0.3-20.6,9.9
		C324.1,373.4,327.3,377.6,333.8,377.6z"/>
	<path d="M366.8,337.9h5.8v7.7c0,1.9-0.2,3.5-0.2,3.5h0.2c2.1-6.6,7-11.7,13.8-11.7c1.2,0,2.3,0.3,2.3,0.3v5.8c0,0-1-0.2-2.2-0.2
		c-6.2,0-10.8,4.9-12.7,11.3c-0.9,2.8-1.2,5.7-1.2,8.5v18.4h-5.9v-43.6H366.8z"/>
	<path d="M417.1,336.8c12.8,0,23.1,9.7,23.1,22.7c0,13.2-10.3,23.1-23.1,23.1s-23.1-9.9-23.1-23.1
		C394,346.6,404.4,336.8,417.1,336.8z M417.1,377.4c9.4,0,17-7.7,17-17.8c0-9.9-7.7-17.3-17-17.3s-17,7.4-17,17.3
		C400.1,369.7,407.7,377.4,417.1,377.4z"/>
	<path d="M450.9,320.5h5.9V370c0,5.7,2.6,6.6,4.9,6.6c0.8,0,1.5-0.1,1.5-0.1v5.3c0,0-1,0.2-2.2,0.2c-3.7,0-10.1-1.1-10.1-10.7
		L450.9,320.5L450.9,320.5z"/>
	<path d="M472.6,320.5h6.2v7.4h-6.2V320.5z M472.8,337.9h5.9v43.7h-5.9V337.9z"/>
	<path d="M493,337.9h5.8v6.5c0,1.9-0.2,3.5-0.2,3.5h0.2c1.6-4,7.1-11,17.5-11c10.8,0,14.6,6.2,14.6,17v27.8H525v-26.3
		c0-6.9-1-13-9.5-13c-7.5,0-13.9,5.1-15.9,12.3c-0.5,1.8-0.7,3.8-0.7,5.9v21H493V337.9z"/>
	<path d="M567.7,354.6h2.4v-1.1c0-8.4-4.6-11.3-10.9-11.3c-7.2,0-12.3,4.2-12.3,4.2l-2.8-4.5c0,0,5.7-5,15.6-5
		c10.5,0,16.3,5.8,16.3,16.8v28h-5.7v-4.8c0-2.2,0.2-3.7,0.2-3.7h-0.2c0,0-3.7,9.5-14.6,9.5c-7.3,0-14.9-4.3-14.9-13
		C541,354.9,560.2,354.6,567.7,354.6z M556.8,377.6c8.3,0,13.4-8.7,13.4-16.3v-1.9h-2.5c-6.9,0-20.6,0.3-20.6,9.9
		C547,373.4,550.3,377.6,556.8,377.6z"/>
</g>
<g enable-background="new    ">
	<path fill="#6699CC" d="M607.6,320.5h6.4l17,46.4c1.1,3.1,2.3,7.9,2.3,7.9h0.2c0,0,1.2-4.8,2.3-7.9l17-46.4h6.4l-22.7,61.1h-6.3
		L607.6,320.5z"/>
</g>
<g enable-background="new    ">
	<path d="M667.2,320.5h6.2v7.4h-6.2V320.5z M667.4,337.9h5.9v43.7h-5.9V337.9z"/>
	<path d="M707.4,336.8c10.7,0,16,6.3,16,6.3l-3,4.4c0,0-4.9-5.3-12.8-5.3c-9.6,0-17,7.1-17,17.6c0,10.3,7.6,17.6,17.2,17.6
		c8.9,0,14-6.2,14-6.2l2.7,4.6c0,0-5.9,6.9-17,6.9c-13,0-23-9.3-23-22.9C684.5,346.3,694.6,336.8,707.4,336.8z"/>
	<path d="M736.9,343.4h-5.7v-5h5.8v-12.6h5.8v12.6h11v5h-11v21.7c0,10.3,6.5,11.6,9.8,11.6c1.2,0,2-0.2,2-0.2v5.3c0,0-1,0.2-2.5,0.2
		c-5,0-15.2-1.7-15.2-16.3L736.9,343.4L736.9,343.4z"/>
	<path d="M784.3,336.8c12.8,0,23.1,9.7,23.1,22.7c0,13.2-10.3,23.1-23.1,23.1s-23.1-9.9-23.1-23.1
		C761.2,346.6,771.5,336.8,784.3,336.8z M784.3,377.4c9.4,0,17-7.7,17-17.8c0-9.9-7.7-17.3-17-17.3s-17,7.4-17,17.3
		C767.3,369.7,774.9,377.4,784.3,377.4z"/>
	<path d="M818.5,337.9h5.8v7.7c0,1.9-0.2,3.5-0.2,3.5h0.2c2.1-6.6,7-11.7,13.8-11.7c1.2,0,2.3,0.3,2.3,0.3v5.8c0,0-1-0.2-2.2-0.2
		c-6.2,0-10.8,4.9-12.7,11.3c-0.9,2.8-1.2,5.7-1.2,8.5v18.4h-5.9v-43.6H818.5z"/>
	<path d="M849.3,320.5h6.2v7.4h-6.2V320.5z M849.4,337.9h5.9v43.7h-5.9V337.9z"/>
	<path d="M888.1,336.8c12.1,0,18.3,9.3,18.3,20.2c0,1-0.2,3-0.2,3h-33.6c0.3,11.2,7.9,17.3,17,17.3c8,0,13.3-5.3,13.3-5.3l2.7,4.5
		c0,0-6.3,6.1-16.2,6.1c-13,0-22.9-9.4-22.9-22.9C866.6,345.4,876.3,336.8,888.1,336.8z M900.4,355.2c-0.3-9.1-5.9-13.4-12.4-13.4
		c-7.3,0-13.7,4.6-15,13.4H900.4z"/>
	<path d="M917.3,372.1c0,0,4.9,5.3,13,5.3c4.7,0,8.8-2.3,8.8-7c0-9.6-23.6-7.2-23.6-21.5c0-7.8,7-12.1,15-12.1
		c9.2,0,13.5,4.8,13.5,4.8l-2.7,4.5c0,0-3.7-4-11-4c-4.4,0-8.7,1.9-8.7,6.8c0,9.7,23.6,7,23.6,21.5c0,7.1-6.2,12.3-15,12.3
		c-10.6,0-16.2-6.3-16.2-6.3L917.3,372.1z"/>
</g>
</svg>
