<?xml version="1.0" encoding="utf-8"?>
<!-- Generator: Adobe Illustrator 18.1.1, SVG Export Plug-In . SVG Version: 6.00 Build 0)  -->
<svg version="1.1" id="Layer_1" xmlns="http://www.w3.org/2000/svg" xmlns:xlink="http://www.w3.org/1999/xlink" x="0px" y="0px"
	 viewBox="0 0 1200 400" enable-background="new 0 0 1200 400" xml:space="preserve">
<polygon fill="#FFFFFF" stroke="#00597F" stroke-width="7" stroke-miterlimit="10" points="38.7,230.6 3.4,169.4 38.7,108.3 
	109.3,108.3 144.6,169.4 109.3,230.6 "/>
<polygon fill="#FFFFFF" stroke="#00597F" stroke-width="7" stroke-miterlimit="10" points="144,290.9 108.6,229.8 144,168.6 
	214.6,168.6 249.9,229.8 214.6,290.9 "/>
<polygon fill="#FFFFFF" stroke="#00597F" stroke-width="7" stroke-miterlimit="10" points="249.4,230.6 214.1,169.4 249.4,108.3 
	320,108.3 355.3,169.4 320,230.6 "/>
<polygon fill="#FFFFFF" stroke="#00597F" stroke-width="7" stroke-miterlimit="10" points="353.3,291.7 318,230.6 353.3,169.4 
	423.9,169.4 459.2,230.6 423.9,291.7 "/>
<polygon fill="#FFFFFF" stroke="#00597F" stroke-width="7" stroke-miterlimit="10" points="459.2,230.6 423.9,169.4 459.2,108.3 
	529.8,108.3 565.1,169.4 529.8,230.6 "/>
<polygon fill="#FFFFFF" stroke="#00597F" stroke-width="7" stroke-miterlimit="10" points="564.4,291.7 529.1,230.6 564.4,169.4 
	635,169.4 670.3,230.6 635,291.7 "/>
<polygon fill="#00597F" stroke="#00597F" stroke-width="7" stroke-miterlimit="10" points="669.9,231.5 634.6,170.3 669.9,109.1 
	740.6,109.1 775.9,170.3 740.6,231.5 "/>
<polygon fill="#FFFFFF" stroke="#00597F" stroke-width="7" stroke-miterlimit="10" points="773.8,292.6 738.5,231.5 773.8,170.3 
	844.5,170.3 879.8,231.5 844.5,292.6 "/>
<polygon fill="#FFFFFF" stroke="#00597F" stroke-width="7" stroke-miterlimit="10" points="881.3,109.1 846,170.3 881.3,231.5 
	951.9,231.5 987.2,170.3 951.9,109.1 "/>
<polygon fill="#FFFFFF" stroke="#00597F" stroke-width="7" stroke-miterlimit="10" points="986.8,169.4 951.5,230.6 986.8,291.7 
	1057.5,291.7 1092.8,230.6 1057.5,169.4 "/>
<polygon fill="#FFFFFF" stroke="#00597F" stroke-width="7" stroke-miterlimit="10" points="1090.7,108.3 1055.4,169.4 1090.7,230.6 
	1161.3,230.6 1196.6,169.4 1161.3,108.3 "/>
<rect x="39.8" y="145.9" fill="none" width="59.3" height="49.4"/>
<g enable-background="new    ">
	<path fill="#4F7FC1" d="M47.8,143.9h18.4c8.9,0,15.2,6.3,15.2,15.5c0,9.3-6.3,15.7-15.2,15.7h-9.7v16.5h-8.7
		C47.8,191.6,47.8,143.9,47.8,143.9z M64.6,167.7c5,0,8-3.2,8-8.2c0-4.9-3-8.1-7.9-8.1h-8.3v16.3H64.6z"/>
	<path fill="#4F7FC1" d="M87.8,143.9h8.5v7.6h-8.5V143.9z M87.8,157.4h8.5v34.3h-8.5V157.4z"/>
</g>
<rect x="137" y="209.2" fill="none" width="79.4" height="47.9"/>
<g enable-background="new    ">
	<path fill="#4F7FC1" d="M170.4,204.4c11.6,0,17.6,6.5,17.6,6.5l-4.2,6.5c0,0-5.4-5-13-5c-10.1,0-16,7.5-16,16.4
		c0,9.1,6.1,17.1,16.1,17.1c8.3,0,13.8-6.1,13.8-6.1l4.6,6.3c0,0-6.6,7.7-18.8,7.7c-14.6,0-24.7-10.8-24.7-24.9
		C145.9,215,156.3,204.4,170.4,204.4z"/>
	<path fill="#4F7FC1" d="M195.5,205.2h8.5V241c0,3.8,1.3,4.7,3.5,4.7c0.7,0,1.3-0.1,1.3-0.1v7.5c0,0-1.3,0.2-2.7,0.2
		c-4.7,0-10.6-1.2-10.6-11V205.2z"/>
</g>
<rect x="244.2" y="144.9" fill="none" width="81.9" height="73.3"/>
<g enable-background="new    ">
	<path fill="#4F7FC1" d="M278.4,180.4h-16.7l-4,12.2h-8.9l16.8-47.7h9.1l16.8,47.7h-8.9L278.4,180.4z M270,153.2c0,0-1.1,4.7-2,7.4
		l-4.2,12.8h12.5l-4.2-12.8c-0.9-2.7-1.9-7.4-1.9-7.4H270z"/>
	<path fill="#4F7FC1" d="M297.1,182.4c0,0,3.8,3.8,9.3,3.8c2.4,0,4.5-1.1,4.5-3.1c0-5.1-16.7-4.4-16.7-15.5
		c0-6.4,5.7-10.1,13.1-10.1c7.7,0,11.5,3.9,11.5,3.9l-3.2,6.3c0,0-3.2-3-8.4-3c-2.2,0-4.4,0.9-4.4,3.1c0,4.8,16.7,4.2,16.7,15.3
		c0,5.7-5,10.3-13.1,10.3c-8.5,0-13.3-5-13.3-5L297.1,182.4z"/>
</g>
<rect x="354.5" y="208.5" fill="none" width="68.2" height="49.2"/>
<g>
	<g enable-background="new    ">
		<path fill="#4F7FC1" d="M372.3,215.5h-15.7V208h40v7.5H381v40.3h-8.7V215.5z"/>
		<path fill="#4F7FC1" d="M398,245.6c0,0,3.8,3.8,9.3,3.8c2.4,0,4.5-1.1,4.5-3.1c0-5.1-16.7-4.4-16.7-15.5c0-6.4,5.7-10.1,13.1-10.1
			c7.7,0,11.5,3.9,11.5,3.9l-3.2,6.3c0,0-3.2-3-8.4-3c-2.2,0-4.4,0.9-4.4,3.1c0,4.8,16.7,4.2,16.7,15.3c0,5.7-5,10.3-13.1,10.3
			c-8.5,0-13.3-5-13.3-5L398,245.6z"/>
	</g>
</g>
<rect x="452.9" y="144.8" fill="none" width="83.2" height="49.3"/>
<g enable-background="new    ">
	<path fill="#4F7FC1" d="M477,152.3h-15.7v-7.5h40v7.5h-15.7v40.3H477V152.3z"/>
	<path fill="#4F7FC1" d="M500.9,158.3h8.2v5.9c0,1.3-0.1,2.4-0.1,2.4h0.1c1.5-4.9,5.6-8.8,10.9-8.8c0.8,0,1.5,0.1,1.5,0.1v8.4
		c0,0-0.9-0.1-2-0.1c-3.6,0-7.7,2.1-9.3,7.2c-0.5,1.7-0.7,3.6-0.7,5.6v13.6H501v-34.3H500.9z"/>
</g>
<rect x="660.8" y="145.8" fill="none" width="88.9" height="48.9"/>
<g enable-background="new    ">
	<path fill="#FFFFFF" d="M680.4,153.3h-15.7v-7.5h40v7.5H689v40.3h-8.7v-40.3H680.4z"/>
	<path fill="#FFFFFF" d="M709.7,145.8h8.5v14.7c0,1.7-0.1,2.9-0.1,2.9h0.1c0,0,3-5,10.3-5c9.3,0,15.2,7.3,15.2,18
		c0,10.9-6.7,18-15.7,18c-7.1,0-10.2-5.1-10.2-5.1h-0.1c0,0,0.1,1,0.1,2.4v1.9h-8.1V145.8z M726.5,187.2c4.7,0,8.6-3.8,8.6-10.6
		c0-6.5-3.5-10.8-8.5-10.8c-4.4,0-8.6,3.2-8.6,10.8C718,181.9,720.8,187.2,726.5,187.2z"/>
</g>
<rect x="550.8" y="210.9" fill="none" width="98.3" height="52.9"/>
<g enable-background="new    ">
	<path fill="#4F7FC1" d="M560.3,205.9h9.3l9.3,23.6c1.1,2.8,2.4,7,2.4,7h0.1c0,0,1.3-4.2,2.4-7l9.3-23.6h9.3l3.8,47.7h-8.6l-2-26.7
		c-0.2-3.2-0.1-7.4-0.1-7.4h-0.1c0,0-1.4,4.6-2.6,7.4l-7.7,18.5h-7.6l-7.7-18.5c-1.1-2.8-2.6-7.5-2.6-7.5h-0.1c0,0,0.1,4.3-0.1,7.5
		l-2,26.7h-8.7L560.3,205.9z"/>
	<path fill="#4F7FC1" d="M630.6,218.5c9.9,0,15.2,7.2,15.2,16.3c0,1-0.2,3.3-0.2,3.3h-23.7c0.5,6,5.2,9.1,10.3,9.1
		c5.5,0,9.9-3.8,9.9-3.8l3.3,6.1c0,0-5.2,4.9-13.8,4.9c-11.4,0-18.4-8.2-18.4-18C613.2,225.9,620.4,218.5,630.6,218.5z M637.2,232.2
		c-0.1-4.6-3-7.1-6.8-7.1c-4.4,0-7.4,2.7-8.2,7.1H637.2z"/>
</g>
<rect x="755.6" y="210" fill="none" width="107.2" height="48.2"/>
<g enable-background="new    ">
	<path fill="#4F7FC1" d="M775.7,208h17.1c8.6,0,14.7,4.4,14.7,12.3c0,4.4-2.2,8.3-5.8,10.2v0.1c5.2,1.5,7.7,6.4,7.7,11.2
		c0,9.5-7.7,13.8-16.5,13.8h-17.3L775.7,208L775.7,208z M792.8,227.5c3.8,0,5.9-2.7,5.9-6.1s-2-5.9-6.1-5.9h-8.3v12H792.8z
		 M793.6,248.3c4.4,0,6.9-2.9,6.9-6.9s-2.6-6.9-6.9-6.9h-9.3v13.8L793.6,248.3L793.6,248.3z"/>
	<path fill="#4F7FC1" d="M834.9,234.3h1.1v-0.5c0-4.5-2.8-6.1-6.6-6.1c-4.9,0-9.4,3.3-9.4,3.3l-3.2-6.1c0,0,5.3-4.2,13.4-4.2
		c9,0,14.3,5,14.3,13.6v21.4h-7.9V253c0-1.3,0.1-2.4,0.1-2.4h-0.1c0.1,0-2.6,6.1-10.4,6.1c-6.1,0-11.6-3.8-11.6-10.7
		C814.6,235,829.3,234.3,834.9,234.3z M828.4,249.9c4.5,0,7.7-4.8,7.7-9v-0.8h-1.5c-4.4,0-11.4,0.6-11.4,5.4
		C823.2,247.8,824.9,249.9,828.4,249.9z"/>
</g>
<rect x="872.5" y="145.7" fill="none" width="88.2" height="48.2"/>
<g enable-background="new    ">
	<path fill="#4F7FC1" d="M893.8,153.2h-15.7v-7.5h40v7.5h-15.7v40.3h-8.7v-40.3H893.8z"/>
	<path fill="#4F7FC1" d="M917.7,159.2h8.5v20.3c0,4.2,1.1,7,5.3,7c6.2,0,9.6-5.4,9.6-11.6v-15.7h8.5v34.3h-8.2v-3.9
		c0-1.3,0.1-2.4,0.1-2.4h-0.1c-1.7,3.6-6.1,7.1-11.9,7.1c-7.3,0-11.9-3.7-11.9-13v-22.1H917.7z"/>
</g>
<rect x="975.7" y="209.7" fill="none" width="89.5" height="48.6"/>
<g enable-background="new    ">
	<path fill="#4F7FC1" d="M987.2,205h18.4c8.9,0,15.2,6.3,15.2,15.5c0,9.3-6.3,15.7-15.2,15.7h-9.7v16.5h-8.7V205z M1004,228.8
		c5,0,8-3.2,8-8.2c0-4.9-3-8.1-7.9-8.1h-8.3v16.3H1004z"/>
	<path fill="#4F7FC1" d="M1042.1,217.7c9.9,0,15.2,7.2,15.2,16.3c0,1-0.2,3.3-0.2,3.3h-23.7c0.5,6,5.2,9.1,10.3,9.1
		c5.5,0,9.9-3.8,9.9-3.8l3.3,6.1c0,0-5.2,4.9-13.8,4.9c-11.4,0-18.4-8.2-18.4-18C1024.7,225.1,1031.9,217.7,1042.1,217.7z
		 M1048.7,231.4c-0.1-4.6-3-7.1-6.8-7.1c-4.4,0-7.4,2.7-8.2,7.1H1048.7z"/>
</g>
<rect x="1077.1" y="147" fill="none" width="94.6" height="50.7"/>
<g enable-background="new    ">
	<path fill="#4F7FC1" d="M1105.8,146.2c11.7,0,17.7,6.1,17.7,6.1l-4.3,6.5c0,0-5.1-4.6-12.7-4.6c-10.7,0-16.4,7.4-16.4,16.4
		c0,10.4,7.1,17.1,16,17.1c7.2,0,12-5,12-5v-5.6h-7.3v-7.5h15.1v25.1h-7.4v-2.3c0-1,0.1-2,0.1-2h-0.1c0,0-5,5.1-13.8,5.1
		c-12.6,0-23.4-9.7-23.4-24.7C1081.2,157,1091.6,146.2,1105.8,146.2z"/>
	<path fill="#4F7FC1" d="M1133.7,160.5h8.5v20.3c0,4.2,1.1,7,5.3,7c6.2,0,9.6-5.4,9.6-11.6v-15.7h8.5v34.3h-8.2v-3.9
		c0-1.3,0.1-2.4,0.1-2.4h-0.1c-1.7,3.6-6.1,7.1-11.9,7.1c-7.3,0-11.9-3.7-11.9-13L1133.7,160.5L1133.7,160.5z"/>
</g>
</svg>
